<mxfile host="Electron" modified="2023-05-21T03:59:09.509Z" agent="Mozilla/5.0 (X11; Linux x86_64) AppleWebKit/537.36 (KHTML, like Gecko) draw.io/21.2.8 Chrome/112.0.5615.165 Electron/24.2.0 Safari/537.36" etag="gNvxuG_LqrPVoH7Y95pe" version="21.2.8" type="device">
  <diagram id="d_YUVAbH0xJJSEouSpRH" name="Page-1">
    <mxGraphModel dx="1114" dy="1027" grid="1" gridSize="10" guides="1" tooltips="1" connect="1" arrows="1" fold="1" page="1" pageScale="1" pageWidth="827" pageHeight="1169" math="0" shadow="0">
      <root>
        <mxCell id="0" />
        <mxCell id="1" parent="0" />
        <mxCell id="3FcNo0TltIEgIDyjC2Gk-11" value="" style="rounded=1;whiteSpace=wrap;html=1;fillColor=#E6E6E6;strokeColor=none;strokeWidth=0;" parent="1" vertex="1">
          <mxGeometry x="480" y="340" width="340" height="240" as="geometry" />
        </mxCell>
        <mxCell id="3FcNo0TltIEgIDyjC2Gk-10" value="" style="rounded=1;whiteSpace=wrap;html=1;fillColor=#E6E6E6;strokeColor=none;strokeWidth=0;" parent="1" vertex="1">
          <mxGeometry x="170" y="340" width="280" height="240" as="geometry" />
        </mxCell>
        <mxCell id="3FcNo0TltIEgIDyjC2Gk-8" value="" style="rounded=1;whiteSpace=wrap;html=1;fillColor=#E6E6E6;strokeColor=none;strokeWidth=0;" parent="1" vertex="1">
          <mxGeometry x="40" y="340" width="90" height="240" as="geometry" />
        </mxCell>
        <mxCell id="6tfxcnYcnnUwI2l_sp5J-9" value="F&amp;lt;b&amp;gt;" style="ellipse;whiteSpace=wrap;html=1;" parent="1" vertex="1">
          <mxGeometry x="270" y="530" width="80" height="30" as="geometry" />
        </mxCell>
        <mxCell id="6tfxcnYcnnUwI2l_sp5J-10" value="F&amp;lt;a&amp;gt;" style="ellipse;whiteSpace=wrap;html=1;" parent="1" vertex="1">
          <mxGeometry x="180" y="530" width="80" height="30" as="geometry" />
        </mxCell>
        <mxCell id="6tfxcnYcnnUwI2l_sp5J-12" value="F&amp;lt;c&amp;gt;" style="ellipse;whiteSpace=wrap;html=1;" parent="1" vertex="1">
          <mxGeometry x="360" y="530" width="80" height="30" as="geometry" />
        </mxCell>
        <mxCell id="6tfxcnYcnnUwI2l_sp5J-13" value="F&amp;lt;F&amp;lt;a&amp;gt;&amp;gt;" style="ellipse;whiteSpace=wrap;html=1;" parent="1" vertex="1">
          <mxGeometry x="487" y="530" width="100" height="30" as="geometry" />
        </mxCell>
        <mxCell id="6tfxcnYcnnUwI2l_sp5J-14" value="F&amp;lt;F&amp;lt;b&amp;gt;&amp;gt;" style="ellipse;whiteSpace=wrap;html=1;" parent="1" vertex="1">
          <mxGeometry x="597" y="530" width="100" height="30" as="geometry" />
        </mxCell>
        <mxCell id="6tfxcnYcnnUwI2l_sp5J-15" value="F&amp;lt;F&amp;lt;c&amp;gt;&amp;gt;" style="ellipse;whiteSpace=wrap;html=1;" parent="1" vertex="1">
          <mxGeometry x="707" y="530" width="100" height="30" as="geometry" />
        </mxCell>
        <mxCell id="6tfxcnYcnnUwI2l_sp5J-16" value="F&amp;lt;F&amp;lt;a&amp;gt;&amp;amp;F&amp;lt;b&amp;gt;&amp;amp;F&amp;lt;c&amp;gt;&amp;gt;" style="ellipse;whiteSpace=wrap;html=1;" parent="1" vertex="1">
          <mxGeometry x="572" y="380" width="150" height="50" as="geometry" />
        </mxCell>
        <mxCell id="6tfxcnYcnnUwI2l_sp5J-17" value="F&amp;lt;a&amp;gt;&amp;amp;F&amp;lt;b&amp;gt;&amp;amp;F&amp;lt;c&amp;gt;" style="ellipse;whiteSpace=wrap;html=1;" parent="1" vertex="1">
          <mxGeometry x="240" y="380" width="140" height="50" as="geometry" />
        </mxCell>
        <mxCell id="6tfxcnYcnnUwI2l_sp5J-21" value="" style="endArrow=classic;html=1;rounded=0;entryX=0.5;entryY=0;entryDx=0;entryDy=0;exitX=0.5;exitY=1;exitDx=0;exitDy=0;" parent="1" source="6tfxcnYcnnUwI2l_sp5J-17" target="6tfxcnYcnnUwI2l_sp5J-9" edge="1">
          <mxGeometry width="50" height="50" relative="1" as="geometry">
            <mxPoint x="340" y="490" as="sourcePoint" />
            <mxPoint x="310" y="410" as="targetPoint" />
          </mxGeometry>
        </mxCell>
        <mxCell id="6tfxcnYcnnUwI2l_sp5J-22" value="" style="endArrow=classic;html=1;rounded=0;exitX=0;exitY=1;exitDx=0;exitDy=0;entryX=0.5;entryY=0;entryDx=0;entryDy=0;" parent="1" source="6tfxcnYcnnUwI2l_sp5J-17" target="6tfxcnYcnnUwI2l_sp5J-10" edge="1">
          <mxGeometry width="50" height="50" relative="1" as="geometry">
            <mxPoint x="210" y="720" as="sourcePoint" />
            <mxPoint x="200" y="390" as="targetPoint" />
          </mxGeometry>
        </mxCell>
        <mxCell id="6tfxcnYcnnUwI2l_sp5J-23" value="" style="endArrow=classic;html=1;rounded=0;exitX=1;exitY=1;exitDx=0;exitDy=0;" parent="1" source="6tfxcnYcnnUwI2l_sp5J-17" target="6tfxcnYcnnUwI2l_sp5J-12" edge="1">
          <mxGeometry width="50" height="50" relative="1" as="geometry">
            <mxPoint x="360" y="430" as="sourcePoint" />
            <mxPoint x="310" y="410" as="targetPoint" />
          </mxGeometry>
        </mxCell>
        <mxCell id="6tfxcnYcnnUwI2l_sp5J-25" value="" style="endArrow=classic;html=1;rounded=0;entryX=0.5;entryY=1;entryDx=0;entryDy=0;" parent="1" source="6tfxcnYcnnUwI2l_sp5J-14" target="6tfxcnYcnnUwI2l_sp5J-16" edge="1">
          <mxGeometry width="50" height="50" relative="1" as="geometry">
            <mxPoint x="750" y="450" as="sourcePoint" />
            <mxPoint x="620" y="500" as="targetPoint" />
          </mxGeometry>
        </mxCell>
        <mxCell id="6tfxcnYcnnUwI2l_sp5J-30" value="" style="shape=flexArrow;endArrow=classic;html=1;rounded=0;fillColor=default;" parent="1" edge="1">
          <mxGeometry width="50" height="50" relative="1" as="geometry">
            <mxPoint x="440" y="544.5" as="sourcePoint" />
            <mxPoint x="490" y="545" as="targetPoint" />
          </mxGeometry>
        </mxCell>
        <mxCell id="6tfxcnYcnnUwI2l_sp5J-31" value="2. &lt;b&gt;F&lt;/b&gt;" style="text;html=1;strokeColor=none;fillColor=none;align=center;verticalAlign=middle;whiteSpace=wrap;rounded=0;" parent="1" vertex="1">
          <mxGeometry x="430" y="555" width="70" height="30" as="geometry" />
        </mxCell>
        <mxCell id="6tfxcnYcnnUwI2l_sp5J-37" value="3. &lt;b&gt;Extends&lt;/b&gt;&lt;br&gt;F&amp;lt;a&amp;gt;&amp;amp;F&amp;lt;b&amp;gt;&amp;amp;F&amp;lt;c&amp;gt;" style="text;html=1;strokeColor=none;fillColor=none;align=left;verticalAlign=middle;whiteSpace=wrap;rounded=0;" parent="1" vertex="1">
          <mxGeometry x="414" y="400" width="120" height="60" as="geometry" />
        </mxCell>
        <mxCell id="6tfxcnYcnnUwI2l_sp5J-38" value="" style="shape=flexArrow;endArrow=classic;html=1;rounded=0;fillColor=default;" parent="1" edge="1">
          <mxGeometry width="50" height="50" relative="1" as="geometry">
            <mxPoint x="240" y="410" as="sourcePoint" />
            <mxPoint x="110" y="510" as="targetPoint" />
            <Array as="points">
              <mxPoint x="210" y="510" />
            </Array>
          </mxGeometry>
        </mxCell>
        <mxCell id="6tfxcnYcnnUwI2l_sp5J-42" value="4. &lt;b&gt;Extends&lt;/b&gt;&lt;br&gt;c" style="text;html=1;strokeColor=none;fillColor=none;align=left;verticalAlign=middle;whiteSpace=wrap;rounded=0;" parent="1" vertex="1">
          <mxGeometry x="140" y="470" width="70" height="30" as="geometry" />
        </mxCell>
        <mxCell id="1Ju_5KphUJLweasw6qGO-3" value="a | b |&amp;nbsp; c" style="text;html=1;strokeColor=none;fillColor=none;align=center;verticalAlign=middle;whiteSpace=wrap;rounded=0;" parent="1" vertex="1">
          <mxGeometry x="40" y="530" width="90" height="30" as="geometry" />
        </mxCell>
        <mxCell id="3FcNo0TltIEgIDyjC2Gk-1" value="" style="endArrow=classic;html=1;rounded=0;entryX=0;entryY=1;entryDx=0;entryDy=0;exitX=0.5;exitY=0;exitDx=0;exitDy=0;" parent="1" source="6tfxcnYcnnUwI2l_sp5J-13" target="6tfxcnYcnnUwI2l_sp5J-16" edge="1">
          <mxGeometry width="50" height="50" relative="1" as="geometry">
            <mxPoint x="390" y="550" as="sourcePoint" />
            <mxPoint x="440" y="500" as="targetPoint" />
          </mxGeometry>
        </mxCell>
        <mxCell id="3FcNo0TltIEgIDyjC2Gk-2" value="" style="endArrow=classic;html=1;rounded=0;entryX=1;entryY=1;entryDx=0;entryDy=0;exitX=0.5;exitY=0;exitDx=0;exitDy=0;" parent="1" source="6tfxcnYcnnUwI2l_sp5J-15" target="6tfxcnYcnnUwI2l_sp5J-16" edge="1">
          <mxGeometry width="50" height="50" relative="1" as="geometry">
            <mxPoint x="697" y="470" as="sourcePoint" />
            <mxPoint x="747" y="420" as="targetPoint" />
          </mxGeometry>
        </mxCell>
        <mxCell id="3FcNo0TltIEgIDyjC2Gk-12" value="" style="endArrow=classic;html=1;rounded=0;shape=flexArrow;entryX=1;entryY=0.5;entryDx=0;entryDy=0;fillColor=default;" parent="1" target="6tfxcnYcnnUwI2l_sp5J-17" edge="1">
          <mxGeometry width="50" height="50" relative="1" as="geometry">
            <mxPoint x="510" y="520" as="sourcePoint" />
            <mxPoint x="480" y="280" as="targetPoint" />
            <Array as="points">
              <mxPoint x="560" y="405" />
            </Array>
          </mxGeometry>
        </mxCell>
        <mxCell id="3FcNo0TltIEgIDyjC2Gk-13" value="" style="shape=flexArrow;endArrow=classic;html=1;rounded=0;entryX=0;entryY=0.5;entryDx=0;entryDy=0;exitX=1;exitY=0.5;exitDx=0;exitDy=0;" parent="1" source="1Ju_5KphUJLweasw6qGO-3" target="6tfxcnYcnnUwI2l_sp5J-10" edge="1">
          <mxGeometry width="50" height="50" relative="1" as="geometry">
            <mxPoint x="390" y="540" as="sourcePoint" />
            <mxPoint x="440" y="490" as="targetPoint" />
          </mxGeometry>
        </mxCell>
        <mxCell id="3FcNo0TltIEgIDyjC2Gk-14" value="1. &lt;b&gt;F&lt;/b&gt;" style="text;html=1;strokeColor=none;fillColor=none;align=center;verticalAlign=middle;whiteSpace=wrap;rounded=0;" parent="1" vertex="1">
          <mxGeometry x="120" y="555" width="70" height="30" as="geometry" />
        </mxCell>
        <mxCell id="3FcNo0TltIEgIDyjC2Gk-15" value="&lt;b&gt;F1 extends category&lt;/b&gt;" style="text;html=1;strokeColor=none;fillColor=none;align=center;verticalAlign=middle;whiteSpace=wrap;rounded=0;" parent="1" vertex="1">
          <mxGeometry x="240" y="310" width="140" height="30" as="geometry" />
        </mxCell>
        <mxCell id="3FcNo0TltIEgIDyjC2Gk-16" value="&lt;b&gt;F2 extends category&lt;/b&gt;" style="text;html=1;strokeColor=none;fillColor=none;align=center;verticalAlign=middle;whiteSpace=wrap;rounded=0;" parent="1" vertex="1">
          <mxGeometry x="547" y="310" width="200" height="30" as="geometry" />
        </mxCell>
      </root>
    </mxGraphModel>
  </diagram>
</mxfile>
